<svg xmlns="http://www.w3.org/2000/svg" xmlns:xlink="http://www.w3.org/1999/xlink" version="1.2" width="39.59mm" height="33.01mm" viewBox="0.0000 -0.0000 45.0535 37.5667">
<style type="text/css">
<![CDATA[
tspan { white-space: pre; }
]]>
</style>
<g transform="translate(5.6906, 22.4640)">
<line stroke-linejoin="round" stroke-linecap="round" stroke-width="0.1657" stroke="currentColor" x1="0.0829" y1="0" x2="33.5896" y2="0"/>
</g>
<g transform="translate(5.6906, 21.4640)">
<line stroke-linejoin="round" stroke-linecap="round" stroke-width="0.1657" stroke="currentColor" x1="0.0829" y1="0" x2="33.5896" y2="0"/>
</g>
<g transform="translate(5.6906, 20.4640)">
<line stroke-linejoin="round" stroke-linecap="round" stroke-width="0.1657" stroke="currentColor" x1="0.0829" y1="0" x2="33.5896" y2="0"/>
</g>
<g transform="translate(5.6906, 19.4640)">
<line stroke-linejoin="round" stroke-linecap="round" stroke-width="0.1657" stroke="currentColor" x1="0.0829" y1="0" x2="33.5896" y2="0"/>
</g>
<g transform="translate(5.6906, 18.4640)">
<line stroke-linejoin="round" stroke-linecap="round" stroke-width="0.1657" stroke="currentColor" x1="0.0829" y1="0" x2="33.5896" y2="0"/>
</g>
<g transform="translate(5.6906, 17.4640)">
<rect x="21.6529" y="-0.1329" width="1.9341" height="0.2657" ry="0.1329" fill="currentColor"/>
</g>
<g transform="translate(5.6906, 16.4640)">
<rect x="18.8556" y="-0.1329" width="1.9341" height="0.2657" ry="0.1329" fill="currentColor"/>
</g>
<g transform="translate(5.6906, 17.4640)">
<rect x="18.8556" y="-0.1329" width="1.9341" height="0.2657" ry="0.1329" fill="currentColor"/>
</g>
<g transform="translate(5.6906, 17.4640)">
<rect x="5.6250" y="-0.1329" width="1.7867" height="0.2657" ry="0.1329" fill="currentColor"/>
</g>
<g transform="translate(27.7072, 20.4640)">
<rect x="-0.0414" y="-3.3633" width="0.0829" height="6.8633" ry="0.0414" fill="currentColor"/>
</g>
<a style="color:inherit;" xlink:href="textedit:///Users/davi/Composic%cc%a7a%cc%83o/2023/base-omcwb/omcwb/exemplo_tempo_fala.ily:40:24:25">
<g transform="translate(24.8685, 16.4640)">
<path transform="scale(0.0040, -0.0040)" d="M199 142c66 0 123 -38 123 -108s-48 -117 -94 -145c-32 -19 -68 -31 -105 -31c-66 0 -123 38 -123 108s48 117 94 145c32 19 68 31 105 31z" fill="currentColor"/>
</g>
</a>
<a style="color:inherit;" xlink:href="textedit:///Users/davi/Composic%cc%a7a%cc%83o/2023/base-omcwb/omcwb/exemplo_tempo_fala.ily:43:24:25">
<g transform="translate(25.5131, 15.2077)">
<path transform="scale(0.0040, -0.0040)" d="M-206 75c-11 3 -19 13 -19 25c0 15 14 28 31 24l394 -99c17 0 25 -8 25 -25s-8 -25 -25 -25l-394 -99c-17 -4 -31 9 -31 24c0 12 8 22 19 25l232 58l139 17l-139 17z" fill="currentColor"/>
</g>
</a>
<a style="color:inherit;" xlink:href="textedit:///Users/davi/Composic%cc%a7a%cc%83o/2023/base-omcwb/omcwb/exemplo_tempo_fala.ily:104:199:200">
<g transform="translate(23.6393, 26.6394)">
<text font-family="serif" font-variant="small-caps" font-size="2.4696" text-anchor="start" fill="currentColor">
<tspan>vo</tspan>
</text>
</g>
<g transform="translate(23.6393, 26.6394)">
<line stroke-linejoin="round" stroke-linecap="round" stroke-width="0.1657" stroke="currentColor" x1="0.0000" y1="-0.6629" x2="2.4583" y2="-0.6629"/>
</g>
</a>
<g transform="translate(24.9099, 20.4640)">
<rect x="-0.0414" y="-3.8633" width="0.0829" height="7.3633" ry="0.0414" fill="currentColor"/>
</g>
<a style="color:inherit;" xlink:href="textedit:///Users/davi/Composic%cc%a7a%cc%83o/2023/base-omcwb/omcwb/exemplo_tempo_fala.ily:104:224:225">
<g transform="translate(26.1976, 26.6394)">
<text font-family="serif" font-variant="small-caps" font-size="2.4696" text-anchor="start" fill="currentColor">
<tspan>a...</tspan>
</text>
</g>
<g transform="translate(26.1976, 26.6394)">
<line stroke-linejoin="round" stroke-linecap="round" stroke-width="0.1657" stroke="currentColor" x1="0.0000" y1="-0.6629" x2="2.9363" y2="-0.6629"/>
</g>
</a>
<a style="color:inherit;" xlink:href="textedit:///Users/davi/Composic%cc%a7a%cc%83o/2023/base-omcwb/omcwb/exemplo_tempo_fala.ily:44:24:25">
<g transform="translate(27.6658, 16.9640)">
<path transform="scale(0.0040, -0.0040)" d="M199 142c66 0 123 -38 123 -108s-48 -117 -94 -145c-32 -19 -68 -31 -105 -31c-66 0 -123 38 -123 108s48 117 94 145c32 19 68 31 105 31z" fill="currentColor"/>
</g>
</a>
<a style="color:inherit;" xlink:href="textedit:///Users/davi/Composic%cc%a7a%cc%83o/2023/base-omcwb/omcwb/exemplo_tempo_fala.ily:47:24:25">
<g transform="translate(28.3105, 15.9958)">
<path transform="scale(0.0040, -0.0040)" d="M-50 0c0 28 22 50 50 50s50 -22 50 -50s-22 -50 -50 -50s-50 22 -50 50z" fill="currentColor"/>
</g>
</a>
<a style="color:inherit;" xlink:href="textedit:///Users/davi/Composic%cc%a7a%cc%83o/2023/base-omcwb/omcwb/exemplo_tempo_fala.ily:104:298:299">
<g transform="translate(36.2218, 26.6394)">
<text font-family="serif" font-variant="small-caps" font-size="2.4696" text-anchor="start" fill="currentColor">
<tspan>vra</tspan>
</text>
</g>
<g transform="translate(36.2218, 26.6394)">
<line stroke-linejoin="round" stroke-linecap="round" stroke-width="0.1657" stroke="currentColor" x1="0.0000" y1="-0.6629" x2="3.1412" y2="-0.6629"/>
</g>
</a>
<a style="color:inherit;" xlink:href="textedit:///Users/davi/Composic%cc%a7a%cc%83o/2023/base-omcwb/omcwb/exemplo_tempo_fala.ily:104:124:125">
<g transform="translate(13.1311, 26.6394)">
<rect x="0.0000" y="-0.6354" width="0.6141" height="0.2154" ry="0.0663" fill="currentColor"/>
</g>
</a>
<a style="color:inherit;" xlink:href="textedit:///Users/davi/Composic%cc%a7a%cc%83o/2023/base-omcwb/omcwb/exemplo_tempo_fala.ily:104:173:174">
<g transform="translate(19.9273, 26.6394)">
<rect x="0.0000" y="-0.6354" width="0.6600" height="0.2154" ry="0.0663" fill="currentColor"/>
</g>
</a>
<a style="color:inherit;" xlink:href="textedit:///Users/davi/Composic%cc%a7a%cc%83o/2023/base-omcwb/omcwb/exemplo_tempo_fala.ily:53:24:25">
<g transform="translate(33.0855, 17.9640)">
<path transform="scale(0.0040, -0.0040)" d="M302 59c0 22 -19 38 -38 38c-4 0 -7 -1 -11 -2c-28 -8 -71 -35 -104 -57s-75 -50 -94 -72c-6 -7 -10 -16 -10 -25c0 -22 19 -38 38 -38c4 0 7 1 11 2c28 8 71 35 104 57s76 50 95 72c6 7 9 16 9 25zM333 107c11 -16 15 -35 15 -54c0 -64 -26 -124 -68 -152
c-50 -33 -105 -43 -170 -43c-37 0 -75 5 -95 35c-11 16 -15 35 -15 54c0 64 26 124 68 152c50 33 105 43 170 43c37 0 75 -5 95 -35z" fill="currentColor"/>
</g>
</a>
<a style="color:inherit;" xlink:href="textedit:///Users/davi/Composic%cc%a7a%cc%83o/2023/base-omcwb/omcwb/exemplo_tempo_fala.ily:104:248:249">
<g transform="translate(31.9246, 26.6394)">
<text font-family="serif" font-variant="small-caps" font-size="2.4696" text-anchor="start" fill="currentColor">
<tspan>pa</tspan>
</text>
</g>
<g transform="translate(31.9246, 26.6394)">
<line stroke-linejoin="round" stroke-linecap="round" stroke-width="0.1657" stroke="currentColor" x1="0.0000" y1="-0.6629" x2="2.3217" y2="-0.6629"/>
</g>
</a>
<g transform="translate(33.1269, 20.4640)">
<rect x="-0.0414" y="-2.3633" width="0.0829" height="3.3633" ry="0.0414" fill="currentColor"/>
</g>
<a style="color:inherit;" xlink:href="textedit:///Users/davi/Composic%cc%a7a%cc%83o/2023/base-omcwb/omcwb/exemplo_tempo_fala.ily:104:273:274">
<g transform="translate(34.3463, 26.6394)">
<text font-family="serif" font-variant="small-caps" font-size="2.4696" text-anchor="start" fill="currentColor">
<tspan>la</tspan>
</text>
</g>
<g transform="translate(34.3463, 26.6394)">
<line stroke-linejoin="round" stroke-linecap="round" stroke-width="0.1657" stroke="currentColor" x1="0.0000" y1="-0.6629" x2="1.7755" y2="-0.6629"/>
</g>
</a>
<g transform="translate(10.4406, 16.9640)">
<path transform="scale(0.0040, -0.0040)" d="M113 -52c7 5 16 11 26 11c19 0 36 -15 36 -36v-42c0 -12 -6 -23 -16 -30l-46 -29v-129c0 -14 -11 -25 -25 -25s-26 11 -26 25v96c-7 -5 -16 -10 -26 -10c-19 0 -36 15 -36 36v41c0 12 6 23 16 30l46 30v136c-7 -5 -16 -11 -26 -11c-19 0 -36 15 -36 36v42
c0 12 6 23 16 30l46 29v129c0 14 12 26 26 26s25 -12 25 -26v-96c7 5 16 10 26 10c19 0 36 -15 36 -36v-41c0 -12 -6 -23 -16 -30l-46 -30v-136z" fill="currentColor"/>
</g>
<a style="color:inherit;" xlink:href="textedit:///Users/davi/Composic%cc%a7a%cc%83o/2023/base-omcwb/omcwb/exemplo_tempo_fala.ily:37:24:25">
<g transform="translate(15.0102, 17.9640)">
<path transform="scale(0.0040, -0.0040)" d="M199 142c66 0 123 -38 123 -108s-48 -117 -94 -145c-32 -19 -68 -31 -105 -31c-66 0 -123 38 -123 108s48 117 94 145c32 19 68 31 105 31z" fill="currentColor"/>
</g>
</a>
<a style="color:inherit;" xlink:href="textedit:///Users/davi/Composic%cc%a7a%cc%83o/2023/base-omcwb/omcwb/exemplo_tempo_fala.ily:104:127:128">
<g transform="translate(13.8152, 26.6394)">
<text font-family="serif" font-variant="small-caps" font-size="2.4696" text-anchor="start" fill="currentColor">
<tspan>ta,</tspan>
</text>
</g>
<g transform="translate(13.8152, 26.6394)">
<line stroke-linejoin="round" stroke-linecap="round" stroke-width="0.1657" stroke="currentColor" x1="0.0000" y1="-0.6629" x2="2.3900" y2="-0.6629"/>
</g>
</a>
<g transform="translate(15.0517, 20.4640)">
<rect x="-0.0414" y="-2.3633" width="0.0829" height="5.8633" ry="0.0414" fill="currentColor"/>
</g>
<g transform="translate(20.4614, 19.9640)">
<path transform="scale(0.0040, -0.0040)" d="M52 37c-5 -2 -10 -4 -16 -4c-19 0 -36 16 -36 36v41c0 14 9 28 22 33l30 13v144c0 14 11 26 25 26s26 -12 26 -26v-124l69 29v145c0 14 12 25 26 25s25 -11 25 -25v-124c5 2 10 4 16 4c19 0 36 -16 36 -36v-42c0 -14 -9 -28 -22 -33l-30 -12v-144c5 2 10 4 16 4
c19 0 36 -16 36 -36v-41c0 -14 -9 -28 -22 -33l-30 -13v-144c0 -14 -11 -26 -25 -26s-26 12 -26 26v124l-69 -29v-145c0 -14 -12 -25 -26 -25s-25 11 -25 25v124c-5 -2 -10 -4 -16 -4c-19 0 -36 16 -36 36v42c0 14 9 28 22 33l30 12v144zM172 86l-69 -28v-144l69 28v144z
" fill="currentColor"/>
</g>
<a style="color:inherit;" xlink:href="textedit:///Users/davi/Composic%cc%a7a%cc%83o/2023/base-omcwb/omcwb/exemplo_tempo_fala.ily:33:24:25">
<g transform="translate(11.4906, 16.9640)">
<path transform="scale(0.0040, -0.0040)" d="M199 142c66 0 123 -38 123 -108s-48 -117 -94 -145c-32 -19 -68 -31 -105 -31c-66 0 -123 38 -123 108s48 117 94 145c32 19 68 31 105 31z" fill="currentColor"/>
</g>
</a>
<a style="color:inherit;" xlink:href="textedit:///Users/davi/Composic%cc%a7a%cc%83o/2023/base-omcwb/omcwb/exemplo_tempo_fala.ily:36:24:25">
<g transform="translate(12.1352, 15.9958)">
<path transform="scale(0.0040, -0.0040)" d="M-50 0c0 28 22 50 50 50s50 -22 50 -50s-22 -50 -50 -50s-50 22 -50 50z" fill="currentColor"/>
</g>
</a>
<g color="rgb(100.0000%, 100.0000%, 100.0000%)">
<g transform="translate(6.6563, 21.4640)">
<path transform="scale(0.0040, -0.0040)" d="M335 -268c-190 0 -333 176 -333 380c0 176 125 308 237 445c-23 61 -46 123 -55 188c-8 53 -8 108 -8 162c0 111 53 216 143 281c5 4 12 6 18 6c7 0 13 -3 18 -7c74 -81 139 -242 139 -355c0 -140 -79 -252 -168 -361c23 -67 43 -134 60 -202h4c159 0 261 -131 261 -267
c0 -78 -33 -157 -109 -214c-21 -16 -45 -28 -70 -36c2 -30 3 -60 3 -90c0 -23 -1 -47 -2 -70c-8 -123 -93 -231 -215 -231c-109 0 -198 88 -198 198c0 58 53 103 112 103c54 0 95 -47 95 -103c0 -52 -43 -95 -95 -95c-6 0 -11 0 -16 1c25 -32 62 -52 105 -52
c94 0 154 90 160 187c1 21 2 42 2 63c0 25 -1 51 -2 76c-28 -5 -56 -7 -86 -7zM468 -197c61 25 101 92 101 155c0 84 -59 167 -154 184c23 -110 42 -220 53 -339zM338 -216c27 0 53 1 79 5c-11 124 -31 240 -55 355c-78 -6 -122 -58 -122 -114c0 -42 24 -86 77 -117
c6 -6 8 -12 8 -18c0 -14 -11 -27 -26 -27c-4 0 -7 0 -11 2c-82 44 -120 118 -120 190c0 91 60 180 166 203c-14 54 -29 108 -47 161c-102 -123 -204 -247 -204 -406c0 -129 125 -234 255 -234zM395 1026c-98 -43 -162 -140 -162 -247c0 -24 4 -45 10 -67
c10 -36 23 -71 35 -106c75 97 135 198 135 321c0 43 -3 61 -18 99z" fill="currentColor"/>
</g>
<g transform="translate(6.6437, 21.5274)">
<path transform="scale(0.0040, -0.0040)" d="M335 -268c-190 0 -333 176 -333 380c0 176 125 308 237 445c-23 61 -46 123 -55 188c-8 53 -8 108 -8 162c0 111 53 216 143 281c5 4 12 6 18 6c7 0 13 -3 18 -7c74 -81 139 -242 139 -355c0 -140 -79 -252 -168 -361c23 -67 43 -134 60 -202h4c159 0 261 -131 261 -267
c0 -78 -33 -157 -109 -214c-21 -16 -45 -28 -70 -36c2 -30 3 -60 3 -90c0 -23 -1 -47 -2 -70c-8 -123 -93 -231 -215 -231c-109 0 -198 88 -198 198c0 58 53 103 112 103c54 0 95 -47 95 -103c0 -52 -43 -95 -95 -95c-6 0 -11 0 -16 1c25 -32 62 -52 105 -52
c94 0 154 90 160 187c1 21 2 42 2 63c0 25 -1 51 -2 76c-28 -5 -56 -7 -86 -7zM468 -197c61 25 101 92 101 155c0 84 -59 167 -154 184c23 -110 42 -220 53 -339zM338 -216c27 0 53 1 79 5c-11 124 -31 240 -55 355c-78 -6 -122 -58 -122 -114c0 -42 24 -86 77 -117
c6 -6 8 -12 8 -18c0 -14 -11 -27 -26 -27c-4 0 -7 0 -11 2c-82 44 -120 118 -120 190c0 91 60 180 166 203c-14 54 -29 108 -47 161c-102 -123 -204 -247 -204 -406c0 -129 125 -234 255 -234zM395 1026c-98 -43 -162 -140 -162 -247c0 -24 4 -45 10 -67
c10 -36 23 -71 35 -106c75 97 135 198 135 321c0 43 -3 61 -18 99z" fill="currentColor"/>
</g>
<g transform="translate(6.6077, 21.5811)">
<path transform="scale(0.0040, -0.0040)" d="M335 -268c-190 0 -333 176 -333 380c0 176 125 308 237 445c-23 61 -46 123 -55 188c-8 53 -8 108 -8 162c0 111 53 216 143 281c5 4 12 6 18 6c7 0 13 -3 18 -7c74 -81 139 -242 139 -355c0 -140 -79 -252 -168 -361c23 -67 43 -134 60 -202h4c159 0 261 -131 261 -267
c0 -78 -33 -157 -109 -214c-21 -16 -45 -28 -70 -36c2 -30 3 -60 3 -90c0 -23 -1 -47 -2 -70c-8 -123 -93 -231 -215 -231c-109 0 -198 88 -198 198c0 58 53 103 112 103c54 0 95 -47 95 -103c0 -52 -43 -95 -95 -95c-6 0 -11 0 -16 1c25 -32 62 -52 105 -52
c94 0 154 90 160 187c1 21 2 42 2 63c0 25 -1 51 -2 76c-28 -5 -56 -7 -86 -7zM468 -197c61 25 101 92 101 155c0 84 -59 167 -154 184c23 -110 42 -220 53 -339zM338 -216c27 0 53 1 79 5c-11 124 -31 240 -55 355c-78 -6 -122 -58 -122 -114c0 -42 24 -86 77 -117
c6 -6 8 -12 8 -18c0 -14 -11 -27 -26 -27c-4 0 -7 0 -11 2c-82 44 -120 118 -120 190c0 91 60 180 166 203c-14 54 -29 108 -47 161c-102 -123 -204 -247 -204 -406c0 -129 125 -234 255 -234zM395 1026c-98 -43 -162 -140 -162 -247c0 -24 4 -45 10 -67
c10 -36 23 -71 35 -106c75 97 135 198 135 321c0 43 -3 61 -18 99z" fill="currentColor"/>
</g>
<g transform="translate(6.5540, 21.6171)">
<path transform="scale(0.0040, -0.0040)" d="M335 -268c-190 0 -333 176 -333 380c0 176 125 308 237 445c-23 61 -46 123 -55 188c-8 53 -8 108 -8 162c0 111 53 216 143 281c5 4 12 6 18 6c7 0 13 -3 18 -7c74 -81 139 -242 139 -355c0 -140 -79 -252 -168 -361c23 -67 43 -134 60 -202h4c159 0 261 -131 261 -267
c0 -78 -33 -157 -109 -214c-21 -16 -45 -28 -70 -36c2 -30 3 -60 3 -90c0 -23 -1 -47 -2 -70c-8 -123 -93 -231 -215 -231c-109 0 -198 88 -198 198c0 58 53 103 112 103c54 0 95 -47 95 -103c0 -52 -43 -95 -95 -95c-6 0 -11 0 -16 1c25 -32 62 -52 105 -52
c94 0 154 90 160 187c1 21 2 42 2 63c0 25 -1 51 -2 76c-28 -5 -56 -7 -86 -7zM468 -197c61 25 101 92 101 155c0 84 -59 167 -154 184c23 -110 42 -220 53 -339zM338 -216c27 0 53 1 79 5c-11 124 -31 240 -55 355c-78 -6 -122 -58 -122 -114c0 -42 24 -86 77 -117
c6 -6 8 -12 8 -18c0 -14 -11 -27 -26 -27c-4 0 -7 0 -11 2c-82 44 -120 118 -120 190c0 91 60 180 166 203c-14 54 -29 108 -47 161c-102 -123 -204 -247 -204 -406c0 -129 125 -234 255 -234zM395 1026c-98 -43 -162 -140 -162 -247c0 -24 4 -45 10 -67
c10 -36 23 -71 35 -106c75 97 135 198 135 321c0 43 -3 61 -18 99z" fill="currentColor"/>
</g>
<g transform="translate(6.4906, 21.6297)">
<path transform="scale(0.0040, -0.0040)" d="M335 -268c-190 0 -333 176 -333 380c0 176 125 308 237 445c-23 61 -46 123 -55 188c-8 53 -8 108 -8 162c0 111 53 216 143 281c5 4 12 6 18 6c7 0 13 -3 18 -7c74 -81 139 -242 139 -355c0 -140 -79 -252 -168 -361c23 -67 43 -134 60 -202h4c159 0 261 -131 261 -267
c0 -78 -33 -157 -109 -214c-21 -16 -45 -28 -70 -36c2 -30 3 -60 3 -90c0 -23 -1 -47 -2 -70c-8 -123 -93 -231 -215 -231c-109 0 -198 88 -198 198c0 58 53 103 112 103c54 0 95 -47 95 -103c0 -52 -43 -95 -95 -95c-6 0 -11 0 -16 1c25 -32 62 -52 105 -52
c94 0 154 90 160 187c1 21 2 42 2 63c0 25 -1 51 -2 76c-28 -5 -56 -7 -86 -7zM468 -197c61 25 101 92 101 155c0 84 -59 167 -154 184c23 -110 42 -220 53 -339zM338 -216c27 0 53 1 79 5c-11 124 -31 240 -55 355c-78 -6 -122 -58 -122 -114c0 -42 24 -86 77 -117
c6 -6 8 -12 8 -18c0 -14 -11 -27 -26 -27c-4 0 -7 0 -11 2c-82 44 -120 118 -120 190c0 91 60 180 166 203c-14 54 -29 108 -47 161c-102 -123 -204 -247 -204 -406c0 -129 125 -234 255 -234zM395 1026c-98 -43 -162 -140 -162 -247c0 -24 4 -45 10 -67
c10 -36 23 -71 35 -106c75 97 135 198 135 321c0 43 -3 61 -18 99z" fill="currentColor"/>
</g>
<g transform="translate(6.4271, 21.6171)">
<path transform="scale(0.0040, -0.0040)" d="M335 -268c-190 0 -333 176 -333 380c0 176 125 308 237 445c-23 61 -46 123 -55 188c-8 53 -8 108 -8 162c0 111 53 216 143 281c5 4 12 6 18 6c7 0 13 -3 18 -7c74 -81 139 -242 139 -355c0 -140 -79 -252 -168 -361c23 -67 43 -134 60 -202h4c159 0 261 -131 261 -267
c0 -78 -33 -157 -109 -214c-21 -16 -45 -28 -70 -36c2 -30 3 -60 3 -90c0 -23 -1 -47 -2 -70c-8 -123 -93 -231 -215 -231c-109 0 -198 88 -198 198c0 58 53 103 112 103c54 0 95 -47 95 -103c0 -52 -43 -95 -95 -95c-6 0 -11 0 -16 1c25 -32 62 -52 105 -52
c94 0 154 90 160 187c1 21 2 42 2 63c0 25 -1 51 -2 76c-28 -5 -56 -7 -86 -7zM468 -197c61 25 101 92 101 155c0 84 -59 167 -154 184c23 -110 42 -220 53 -339zM338 -216c27 0 53 1 79 5c-11 124 -31 240 -55 355c-78 -6 -122 -58 -122 -114c0 -42 24 -86 77 -117
c6 -6 8 -12 8 -18c0 -14 -11 -27 -26 -27c-4 0 -7 0 -11 2c-82 44 -120 118 -120 190c0 91 60 180 166 203c-14 54 -29 108 -47 161c-102 -123 -204 -247 -204 -406c0 -129 125 -234 255 -234zM395 1026c-98 -43 -162 -140 -162 -247c0 -24 4 -45 10 -67
c10 -36 23 -71 35 -106c75 97 135 198 135 321c0 43 -3 61 -18 99z" fill="currentColor"/>
</g>
<g transform="translate(6.3734, 21.5811)">
<path transform="scale(0.0040, -0.0040)" d="M335 -268c-190 0 -333 176 -333 380c0 176 125 308 237 445c-23 61 -46 123 -55 188c-8 53 -8 108 -8 162c0 111 53 216 143 281c5 4 12 6 18 6c7 0 13 -3 18 -7c74 -81 139 -242 139 -355c0 -140 -79 -252 -168 -361c23 -67 43 -134 60 -202h4c159 0 261 -131 261 -267
c0 -78 -33 -157 -109 -214c-21 -16 -45 -28 -70 -36c2 -30 3 -60 3 -90c0 -23 -1 -47 -2 -70c-8 -123 -93 -231 -215 -231c-109 0 -198 88 -198 198c0 58 53 103 112 103c54 0 95 -47 95 -103c0 -52 -43 -95 -95 -95c-6 0 -11 0 -16 1c25 -32 62 -52 105 -52
c94 0 154 90 160 187c1 21 2 42 2 63c0 25 -1 51 -2 76c-28 -5 -56 -7 -86 -7zM468 -197c61 25 101 92 101 155c0 84 -59 167 -154 184c23 -110 42 -220 53 -339zM338 -216c27 0 53 1 79 5c-11 124 -31 240 -55 355c-78 -6 -122 -58 -122 -114c0 -42 24 -86 77 -117
c6 -6 8 -12 8 -18c0 -14 -11 -27 -26 -27c-4 0 -7 0 -11 2c-82 44 -120 118 -120 190c0 91 60 180 166 203c-14 54 -29 108 -47 161c-102 -123 -204 -247 -204 -406c0 -129 125 -234 255 -234zM395 1026c-98 -43 -162 -140 -162 -247c0 -24 4 -45 10 -67
c10 -36 23 -71 35 -106c75 97 135 198 135 321c0 43 -3 61 -18 99z" fill="currentColor"/>
</g>
<g transform="translate(6.3375, 21.5274)">
<path transform="scale(0.0040, -0.0040)" d="M335 -268c-190 0 -333 176 -333 380c0 176 125 308 237 445c-23 61 -46 123 -55 188c-8 53 -8 108 -8 162c0 111 53 216 143 281c5 4 12 6 18 6c7 0 13 -3 18 -7c74 -81 139 -242 139 -355c0 -140 -79 -252 -168 -361c23 -67 43 -134 60 -202h4c159 0 261 -131 261 -267
c0 -78 -33 -157 -109 -214c-21 -16 -45 -28 -70 -36c2 -30 3 -60 3 -90c0 -23 -1 -47 -2 -70c-8 -123 -93 -231 -215 -231c-109 0 -198 88 -198 198c0 58 53 103 112 103c54 0 95 -47 95 -103c0 -52 -43 -95 -95 -95c-6 0 -11 0 -16 1c25 -32 62 -52 105 -52
c94 0 154 90 160 187c1 21 2 42 2 63c0 25 -1 51 -2 76c-28 -5 -56 -7 -86 -7zM468 -197c61 25 101 92 101 155c0 84 -59 167 -154 184c23 -110 42 -220 53 -339zM338 -216c27 0 53 1 79 5c-11 124 -31 240 -55 355c-78 -6 -122 -58 -122 -114c0 -42 24 -86 77 -117
c6 -6 8 -12 8 -18c0 -14 -11 -27 -26 -27c-4 0 -7 0 -11 2c-82 44 -120 118 -120 190c0 91 60 180 166 203c-14 54 -29 108 -47 161c-102 -123 -204 -247 -204 -406c0 -129 125 -234 255 -234zM395 1026c-98 -43 -162 -140 -162 -247c0 -24 4 -45 10 -67
c10 -36 23 -71 35 -106c75 97 135 198 135 321c0 43 -3 61 -18 99z" fill="currentColor"/>
</g>
<g transform="translate(6.3248, 21.4640)">
<path transform="scale(0.0040, -0.0040)" d="M335 -268c-190 0 -333 176 -333 380c0 176 125 308 237 445c-23 61 -46 123 -55 188c-8 53 -8 108 -8 162c0 111 53 216 143 281c5 4 12 6 18 6c7 0 13 -3 18 -7c74 -81 139 -242 139 -355c0 -140 -79 -252 -168 -361c23 -67 43 -134 60 -202h4c159 0 261 -131 261 -267
c0 -78 -33 -157 -109 -214c-21 -16 -45 -28 -70 -36c2 -30 3 -60 3 -90c0 -23 -1 -47 -2 -70c-8 -123 -93 -231 -215 -231c-109 0 -198 88 -198 198c0 58 53 103 112 103c54 0 95 -47 95 -103c0 -52 -43 -95 -95 -95c-6 0 -11 0 -16 1c25 -32 62 -52 105 -52
c94 0 154 90 160 187c1 21 2 42 2 63c0 25 -1 51 -2 76c-28 -5 -56 -7 -86 -7zM468 -197c61 25 101 92 101 155c0 84 -59 167 -154 184c23 -110 42 -220 53 -339zM338 -216c27 0 53 1 79 5c-11 124 -31 240 -55 355c-78 -6 -122 -58 -122 -114c0 -42 24 -86 77 -117
c6 -6 8 -12 8 -18c0 -14 -11 -27 -26 -27c-4 0 -7 0 -11 2c-82 44 -120 118 -120 190c0 91 60 180 166 203c-14 54 -29 108 -47 161c-102 -123 -204 -247 -204 -406c0 -129 125 -234 255 -234zM395 1026c-98 -43 -162 -140 -162 -247c0 -24 4 -45 10 -67
c10 -36 23 -71 35 -106c75 97 135 198 135 321c0 43 -3 61 -18 99z" fill="currentColor"/>
</g>
<g transform="translate(6.3375, 21.4005)">
<path transform="scale(0.0040, -0.0040)" d="M335 -268c-190 0 -333 176 -333 380c0 176 125 308 237 445c-23 61 -46 123 -55 188c-8 53 -8 108 -8 162c0 111 53 216 143 281c5 4 12 6 18 6c7 0 13 -3 18 -7c74 -81 139 -242 139 -355c0 -140 -79 -252 -168 -361c23 -67 43 -134 60 -202h4c159 0 261 -131 261 -267
c0 -78 -33 -157 -109 -214c-21 -16 -45 -28 -70 -36c2 -30 3 -60 3 -90c0 -23 -1 -47 -2 -70c-8 -123 -93 -231 -215 -231c-109 0 -198 88 -198 198c0 58 53 103 112 103c54 0 95 -47 95 -103c0 -52 -43 -95 -95 -95c-6 0 -11 0 -16 1c25 -32 62 -52 105 -52
c94 0 154 90 160 187c1 21 2 42 2 63c0 25 -1 51 -2 76c-28 -5 -56 -7 -86 -7zM468 -197c61 25 101 92 101 155c0 84 -59 167 -154 184c23 -110 42 -220 53 -339zM338 -216c27 0 53 1 79 5c-11 124 -31 240 -55 355c-78 -6 -122 -58 -122 -114c0 -42 24 -86 77 -117
c6 -6 8 -12 8 -18c0 -14 -11 -27 -26 -27c-4 0 -7 0 -11 2c-82 44 -120 118 -120 190c0 91 60 180 166 203c-14 54 -29 108 -47 161c-102 -123 -204 -247 -204 -406c0 -129 125 -234 255 -234zM395 1026c-98 -43 -162 -140 -162 -247c0 -24 4 -45 10 -67
c10 -36 23 -71 35 -106c75 97 135 198 135 321c0 43 -3 61 -18 99z" fill="currentColor"/>
</g>
<g transform="translate(6.3734, 21.3468)">
<path transform="scale(0.0040, -0.0040)" d="M335 -268c-190 0 -333 176 -333 380c0 176 125 308 237 445c-23 61 -46 123 -55 188c-8 53 -8 108 -8 162c0 111 53 216 143 281c5 4 12 6 18 6c7 0 13 -3 18 -7c74 -81 139 -242 139 -355c0 -140 -79 -252 -168 -361c23 -67 43 -134 60 -202h4c159 0 261 -131 261 -267
c0 -78 -33 -157 -109 -214c-21 -16 -45 -28 -70 -36c2 -30 3 -60 3 -90c0 -23 -1 -47 -2 -70c-8 -123 -93 -231 -215 -231c-109 0 -198 88 -198 198c0 58 53 103 112 103c54 0 95 -47 95 -103c0 -52 -43 -95 -95 -95c-6 0 -11 0 -16 1c25 -32 62 -52 105 -52
c94 0 154 90 160 187c1 21 2 42 2 63c0 25 -1 51 -2 76c-28 -5 -56 -7 -86 -7zM468 -197c61 25 101 92 101 155c0 84 -59 167 -154 184c23 -110 42 -220 53 -339zM338 -216c27 0 53 1 79 5c-11 124 -31 240 -55 355c-78 -6 -122 -58 -122 -114c0 -42 24 -86 77 -117
c6 -6 8 -12 8 -18c0 -14 -11 -27 -26 -27c-4 0 -7 0 -11 2c-82 44 -120 118 -120 190c0 91 60 180 166 203c-14 54 -29 108 -47 161c-102 -123 -204 -247 -204 -406c0 -129 125 -234 255 -234zM395 1026c-98 -43 -162 -140 -162 -247c0 -24 4 -45 10 -67
c10 -36 23 -71 35 -106c75 97 135 198 135 321c0 43 -3 61 -18 99z" fill="currentColor"/>
</g>
<g transform="translate(6.4271, 21.3109)">
<path transform="scale(0.0040, -0.0040)" d="M335 -268c-190 0 -333 176 -333 380c0 176 125 308 237 445c-23 61 -46 123 -55 188c-8 53 -8 108 -8 162c0 111 53 216 143 281c5 4 12 6 18 6c7 0 13 -3 18 -7c74 -81 139 -242 139 -355c0 -140 -79 -252 -168 -361c23 -67 43 -134 60 -202h4c159 0 261 -131 261 -267
c0 -78 -33 -157 -109 -214c-21 -16 -45 -28 -70 -36c2 -30 3 -60 3 -90c0 -23 -1 -47 -2 -70c-8 -123 -93 -231 -215 -231c-109 0 -198 88 -198 198c0 58 53 103 112 103c54 0 95 -47 95 -103c0 -52 -43 -95 -95 -95c-6 0 -11 0 -16 1c25 -32 62 -52 105 -52
c94 0 154 90 160 187c1 21 2 42 2 63c0 25 -1 51 -2 76c-28 -5 -56 -7 -86 -7zM468 -197c61 25 101 92 101 155c0 84 -59 167 -154 184c23 -110 42 -220 53 -339zM338 -216c27 0 53 1 79 5c-11 124 -31 240 -55 355c-78 -6 -122 -58 -122 -114c0 -42 24 -86 77 -117
c6 -6 8 -12 8 -18c0 -14 -11 -27 -26 -27c-4 0 -7 0 -11 2c-82 44 -120 118 -120 190c0 91 60 180 166 203c-14 54 -29 108 -47 161c-102 -123 -204 -247 -204 -406c0 -129 125 -234 255 -234zM395 1026c-98 -43 -162 -140 -162 -247c0 -24 4 -45 10 -67
c10 -36 23 -71 35 -106c75 97 135 198 135 321c0 43 -3 61 -18 99z" fill="currentColor"/>
</g>
<g transform="translate(6.4906, 21.2982)">
<path transform="scale(0.0040, -0.0040)" d="M335 -268c-190 0 -333 176 -333 380c0 176 125 308 237 445c-23 61 -46 123 -55 188c-8 53 -8 108 -8 162c0 111 53 216 143 281c5 4 12 6 18 6c7 0 13 -3 18 -7c74 -81 139 -242 139 -355c0 -140 -79 -252 -168 -361c23 -67 43 -134 60 -202h4c159 0 261 -131 261 -267
c0 -78 -33 -157 -109 -214c-21 -16 -45 -28 -70 -36c2 -30 3 -60 3 -90c0 -23 -1 -47 -2 -70c-8 -123 -93 -231 -215 -231c-109 0 -198 88 -198 198c0 58 53 103 112 103c54 0 95 -47 95 -103c0 -52 -43 -95 -95 -95c-6 0 -11 0 -16 1c25 -32 62 -52 105 -52
c94 0 154 90 160 187c1 21 2 42 2 63c0 25 -1 51 -2 76c-28 -5 -56 -7 -86 -7zM468 -197c61 25 101 92 101 155c0 84 -59 167 -154 184c23 -110 42 -220 53 -339zM338 -216c27 0 53 1 79 5c-11 124 -31 240 -55 355c-78 -6 -122 -58 -122 -114c0 -42 24 -86 77 -117
c6 -6 8 -12 8 -18c0 -14 -11 -27 -26 -27c-4 0 -7 0 -11 2c-82 44 -120 118 -120 190c0 91 60 180 166 203c-14 54 -29 108 -47 161c-102 -123 -204 -247 -204 -406c0 -129 125 -234 255 -234zM395 1026c-98 -43 -162 -140 -162 -247c0 -24 4 -45 10 -67
c10 -36 23 -71 35 -106c75 97 135 198 135 321c0 43 -3 61 -18 99z" fill="currentColor"/>
</g>
<g transform="translate(6.5540, 21.3109)">
<path transform="scale(0.0040, -0.0040)" d="M335 -268c-190 0 -333 176 -333 380c0 176 125 308 237 445c-23 61 -46 123 -55 188c-8 53 -8 108 -8 162c0 111 53 216 143 281c5 4 12 6 18 6c7 0 13 -3 18 -7c74 -81 139 -242 139 -355c0 -140 -79 -252 -168 -361c23 -67 43 -134 60 -202h4c159 0 261 -131 261 -267
c0 -78 -33 -157 -109 -214c-21 -16 -45 -28 -70 -36c2 -30 3 -60 3 -90c0 -23 -1 -47 -2 -70c-8 -123 -93 -231 -215 -231c-109 0 -198 88 -198 198c0 58 53 103 112 103c54 0 95 -47 95 -103c0 -52 -43 -95 -95 -95c-6 0 -11 0 -16 1c25 -32 62 -52 105 -52
c94 0 154 90 160 187c1 21 2 42 2 63c0 25 -1 51 -2 76c-28 -5 -56 -7 -86 -7zM468 -197c61 25 101 92 101 155c0 84 -59 167 -154 184c23 -110 42 -220 53 -339zM338 -216c27 0 53 1 79 5c-11 124 -31 240 -55 355c-78 -6 -122 -58 -122 -114c0 -42 24 -86 77 -117
c6 -6 8 -12 8 -18c0 -14 -11 -27 -26 -27c-4 0 -7 0 -11 2c-82 44 -120 118 -120 190c0 91 60 180 166 203c-14 54 -29 108 -47 161c-102 -123 -204 -247 -204 -406c0 -129 125 -234 255 -234zM395 1026c-98 -43 -162 -140 -162 -247c0 -24 4 -45 10 -67
c10 -36 23 -71 35 -106c75 97 135 198 135 321c0 43 -3 61 -18 99z" fill="currentColor"/>
</g>
<g transform="translate(6.6077, 21.3468)">
<path transform="scale(0.0040, -0.0040)" d="M335 -268c-190 0 -333 176 -333 380c0 176 125 308 237 445c-23 61 -46 123 -55 188c-8 53 -8 108 -8 162c0 111 53 216 143 281c5 4 12 6 18 6c7 0 13 -3 18 -7c74 -81 139 -242 139 -355c0 -140 -79 -252 -168 -361c23 -67 43 -134 60 -202h4c159 0 261 -131 261 -267
c0 -78 -33 -157 -109 -214c-21 -16 -45 -28 -70 -36c2 -30 3 -60 3 -90c0 -23 -1 -47 -2 -70c-8 -123 -93 -231 -215 -231c-109 0 -198 88 -198 198c0 58 53 103 112 103c54 0 95 -47 95 -103c0 -52 -43 -95 -95 -95c-6 0 -11 0 -16 1c25 -32 62 -52 105 -52
c94 0 154 90 160 187c1 21 2 42 2 63c0 25 -1 51 -2 76c-28 -5 -56 -7 -86 -7zM468 -197c61 25 101 92 101 155c0 84 -59 167 -154 184c23 -110 42 -220 53 -339zM338 -216c27 0 53 1 79 5c-11 124 -31 240 -55 355c-78 -6 -122 -58 -122 -114c0 -42 24 -86 77 -117
c6 -6 8 -12 8 -18c0 -14 -11 -27 -26 -27c-4 0 -7 0 -11 2c-82 44 -120 118 -120 190c0 91 60 180 166 203c-14 54 -29 108 -47 161c-102 -123 -204 -247 -204 -406c0 -129 125 -234 255 -234zM395 1026c-98 -43 -162 -140 -162 -247c0 -24 4 -45 10 -67
c10 -36 23 -71 35 -106c75 97 135 198 135 321c0 43 -3 61 -18 99z" fill="currentColor"/>
</g>
<g transform="translate(6.6437, 21.4005)">
<path transform="scale(0.0040, -0.0040)" d="M335 -268c-190 0 -333 176 -333 380c0 176 125 308 237 445c-23 61 -46 123 -55 188c-8 53 -8 108 -8 162c0 111 53 216 143 281c5 4 12 6 18 6c7 0 13 -3 18 -7c74 -81 139 -242 139 -355c0 -140 -79 -252 -168 -361c23 -67 43 -134 60 -202h4c159 0 261 -131 261 -267
c0 -78 -33 -157 -109 -214c-21 -16 -45 -28 -70 -36c2 -30 3 -60 3 -90c0 -23 -1 -47 -2 -70c-8 -123 -93 -231 -215 -231c-109 0 -198 88 -198 198c0 58 53 103 112 103c54 0 95 -47 95 -103c0 -52 -43 -95 -95 -95c-6 0 -11 0 -16 1c25 -32 62 -52 105 -52
c94 0 154 90 160 187c1 21 2 42 2 63c0 25 -1 51 -2 76c-28 -5 -56 -7 -86 -7zM468 -197c61 25 101 92 101 155c0 84 -59 167 -154 184c23 -110 42 -220 53 -339zM338 -216c27 0 53 1 79 5c-11 124 -31 240 -55 355c-78 -6 -122 -58 -122 -114c0 -42 24 -86 77 -117
c6 -6 8 -12 8 -18c0 -14 -11 -27 -26 -27c-4 0 -7 0 -11 2c-82 44 -120 118 -120 190c0 91 60 180 166 203c-14 54 -29 108 -47 161c-102 -123 -204 -247 -204 -406c0 -129 125 -234 255 -234zM395 1026c-98 -43 -162 -140 -162 -247c0 -24 4 -45 10 -67
c10 -36 23 -71 35 -106c75 97 135 198 135 321c0 43 -3 61 -18 99z" fill="currentColor"/>
</g>
</g>
<g transform="translate(6.4906, 21.4640)">
<path transform="scale(0.0040, -0.0040)" d="M335 -268c-190 0 -333 176 -333 380c0 176 125 308 237 445c-23 61 -46 123 -55 188c-8 53 -8 108 -8 162c0 111 53 216 143 281c5 4 12 6 18 6c7 0 13 -3 18 -7c74 -81 139 -242 139 -355c0 -140 -79 -252 -168 -361c23 -67 43 -134 60 -202h4c159 0 261 -131 261 -267
c0 -78 -33 -157 -109 -214c-21 -16 -45 -28 -70 -36c2 -30 3 -60 3 -90c0 -23 -1 -47 -2 -70c-8 -123 -93 -231 -215 -231c-109 0 -198 88 -198 198c0 58 53 103 112 103c54 0 95 -47 95 -103c0 -52 -43 -95 -95 -95c-6 0 -11 0 -16 1c25 -32 62 -52 105 -52
c94 0 154 90 160 187c1 21 2 42 2 63c0 25 -1 51 -2 76c-28 -5 -56 -7 -86 -7zM468 -197c61 25 101 92 101 155c0 84 -59 167 -154 184c23 -110 42 -220 53 -339zM338 -216c27 0 53 1 79 5c-11 124 -31 240 -55 355c-78 -6 -122 -58 -122 -114c0 -42 24 -86 77 -117
c6 -6 8 -12 8 -18c0 -14 -11 -27 -26 -27c-4 0 -7 0 -11 2c-82 44 -120 118 -120 190c0 91 60 180 166 203c-14 54 -29 108 -47 161c-102 -123 -204 -247 -204 -406c0 -129 125 -234 255 -234zM395 1026c-98 -43 -162 -140 -162 -247c0 -24 4 -45 10 -67
c10 -36 23 -71 35 -106c75 97 135 198 135 321c0 43 -3 61 -18 99z" fill="currentColor"/>
</g>
<a style="color:inherit;" xlink:href="textedit:///Users/davi/Composic%cc%a7a%cc%83o/2023/base-omcwb/omcwb/exemplo_tempo_fala.ily:104:101:102">
<g transform="translate(9.9200, 26.6394)">
<text font-family="serif" font-variant="small-caps" font-size="2.4696" text-anchor="start" fill="currentColor">
<tspan>Sal</tspan>
</text>
</g>
<g transform="translate(9.9200, 26.6394)">
<line stroke-linejoin="round" stroke-linecap="round" stroke-width="0.1657" stroke="currentColor" x1="0.0000" y1="-0.6629" x2="3.1412" y2="-0.6629"/>
</g>
</a>
<g transform="translate(11.5320, 20.4640)">
<rect x="-0.0414" y="-3.3633" width="0.0829" height="6.8633" ry="0.0414" fill="currentColor"/>
</g>
<g transform="translate(16.8996, 18.4640)">
<path transform="scale(0.0040, -0.0040)" d="M52 37c-5 -2 -10 -4 -16 -4c-19 0 -36 16 -36 36v41c0 14 9 28 22 33l30 13v144c0 14 11 26 25 26s26 -12 26 -26v-124l69 29v145c0 14 12 25 26 25s25 -11 25 -25v-124c5 2 10 4 16 4c19 0 36 -16 36 -36v-42c0 -14 -9 -28 -22 -33l-30 -12v-144c5 2 10 4 16 4
c19 0 36 -16 36 -36v-41c0 -14 -9 -28 -22 -33l-30 -13v-144c0 -14 -11 -26 -25 -26s-26 12 -26 26v124l-69 -29v-145c0 -14 -12 -25 -26 -25s-25 11 -25 25v124c-5 -2 -10 -4 -16 -4c-19 0 -36 16 -36 36v42c0 14 9 28 22 33l30 12v144zM172 86l-69 -28v-144l69 28v144z
" fill="currentColor"/>
</g>
<a style="color:inherit;" xlink:href="textedit:///Users/davi/Composic%cc%a7a%cc%83o/2023/base-omcwb/omcwb/exemplo_tempo_fala.ily:39:24:25">
<g transform="translate(21.9943, 19.9640)">
<path transform="scale(0.0040, -0.0040)" d="M199 142c66 0 123 -38 123 -108s-48 -117 -94 -145c-32 -19 -68 -31 -105 -31c-66 0 -123 38 -123 108s48 117 94 145c32 19 68 31 105 31z" fill="currentColor"/>
</g>
</a>
<a style="color:inherit;" xlink:href="textedit:///Users/davi/Composic%cc%a7a%cc%83o/2023/base-omcwb/omcwb/exemplo_tempo_fala.ily:104:176:177">
<g transform="translate(20.7993, 26.6394)">
<text font-family="serif" font-variant="small-caps" font-size="2.4696" text-anchor="start" fill="currentColor">
<tspan>ta,</tspan>
</text>
</g>
<g transform="translate(20.7993, 26.6394)">
<line stroke-linejoin="round" stroke-linecap="round" stroke-width="0.1657" stroke="currentColor" x1="0.0000" y1="-0.6629" x2="2.3900" y2="-0.6629"/>
</g>
</a>
<g transform="translate(22.0357, 20.4640)">
<rect x="-0.0414" y="-0.3633" width="0.0829" height="3.8633" ry="0.0414" fill="currentColor"/>
</g>
<a style="color:inherit;" xlink:href="textedit:///Users/davi/Composic%cc%a7a%cc%83o/2023/base-omcwb/omcwb/exemplo_tempo_fala.ily:38:24:25">
<g transform="translate(18.3496, 18.4640)">
<path transform="scale(0.0040, -0.0040)" d="M199 142c66 0 123 -38 123 -108s-48 -117 -94 -145c-32 -19 -68 -31 -105 -31c-66 0 -123 38 -123 108s48 117 94 145c32 19 68 31 105 31z" fill="currentColor"/>
</g>
</a>
<a style="color:inherit;" xlink:href="textedit:///Users/davi/Composic%cc%a7a%cc%83o/2023/base-omcwb/omcwb/exemplo_tempo_fala.ily:104:150:151">
<g transform="translate(16.9839, 26.6394)">
<text font-family="serif" font-variant="small-caps" font-size="2.4696" text-anchor="start" fill="currentColor">
<tspan>sal</tspan>
</text>
</g>
<g transform="translate(16.9839, 26.6394)">
<line stroke-linejoin="round" stroke-linecap="round" stroke-width="0.1657" stroke="currentColor" x1="0.0000" y1="-0.6629" x2="2.7315" y2="-0.6629"/>
</g>
</a>
<g transform="translate(18.3910, 20.4640)">
<rect x="-0.0414" y="-1.8633" width="0.0829" height="5.3633" ry="0.0414" fill="currentColor"/>
</g>
</svg>
