<svg xmlns="http://www.w3.org/2000/svg" xmlns:xlink="http://www.w3.org/1999/xlink" version="1.2" width="57.16mm" height="39.14mm" viewBox="0.0000 -0.0000 43.3726 29.6990">
<style type="text/css">
<![CDATA[
tspan { white-space: pre; }
]]>
</style>
<g transform="translate(3.7937, 18.6484)">
<line stroke-linejoin="round" stroke-linecap="round" stroke-width="0.1219" stroke="currentColor" x1="0.0610" y1="0" x2="35.7242" y2="0"/>
</g>
<g transform="translate(3.7937, 17.6484)">
<line stroke-linejoin="round" stroke-linecap="round" stroke-width="0.1219" stroke="currentColor" x1="0.0610" y1="0" x2="35.7242" y2="0"/>
</g>
<g transform="translate(3.7937, 16.6484)">
<line stroke-linejoin="round" stroke-linecap="round" stroke-width="0.1219" stroke="currentColor" x1="0.0610" y1="0" x2="35.7242" y2="0"/>
</g>
<g transform="translate(3.7937, 15.6484)">
<line stroke-linejoin="round" stroke-linecap="round" stroke-width="0.1219" stroke="currentColor" x1="0.0610" y1="0" x2="35.7242" y2="0"/>
</g>
<g transform="translate(3.7937, 14.6484)">
<line stroke-linejoin="round" stroke-linecap="round" stroke-width="0.1219" stroke="currentColor" x1="0.0610" y1="0" x2="35.7242" y2="0"/>
</g>
<g transform="translate(3.7937, 13.6484)">
<rect x="22.4824" y="-0.1110" width="1.9513" height="0.2219" ry="0.1110" fill="currentColor"/>
</g>
<g transform="translate(3.7937, 12.6484)">
<rect x="19.4233" y="-0.1110" width="1.9513" height="0.2219" ry="0.1110" fill="currentColor"/>
</g>
<g transform="translate(3.7937, 13.6484)">
<rect x="19.4233" y="-0.1110" width="1.9513" height="0.2219" ry="0.1110" fill="currentColor"/>
</g>
<g transform="translate(3.7937, 13.6484)">
<rect x="5.6250" y="-0.1110" width="1.8010" height="0.2219" ry="0.1110" fill="currentColor"/>
</g>
<g transform="translate(26.6317, 16.6484)">
<rect x="-0.0305" y="-3.3287" width="0.0610" height="6.5677" ry="0.0305" fill="currentColor"/>
</g>
<a style="color:inherit;" xlink:href="textedit:///Users/davi/Composic%cc%a7a%cc%83o/2023/base-omcwb/omcwb/exemplo_tempo_fala.ily:40:24:25">
<g transform="translate(23.5422, 12.6484)">
<path transform="scale(0.0040, -0.0040)" d="M212 138c59 0 113 -31 113 -95c0 -71 -52 -120 -99 -148c-34 -21 -73 -33 -113 -33c-59 0 -113 31 -113 95c0 71 53 120 100 148c34 21 72 33 112 33z" fill="currentColor"/>
</g>
</a>
<a style="color:inherit;" xlink:href="textedit:///Users/davi/Composic%cc%a7a%cc%83o/2023/base-omcwb/omcwb/exemplo_tempo_fala.ily:43:24:25">
<g transform="translate(24.1926, 11.4113)">
<path transform="scale(0.0040, -0.0040)" d="M-209 84c-9 2 -16 10 -16 20c0 13 12 24 26 20l403 -103c14 0 21 -7 21 -21s-7 -21 -21 -21l-403 -103c-14 -4 -26 7 -26 20c0 10 7 18 16 20l245 63l139 21l-139 21z" fill="currentColor"/>
</g>
</a>
<a style="color:inherit;" xlink:href="textedit:///Users/davi/Composic%cc%a7a%cc%83o/2023/base-omcwb/omcwb/exemplo_tempo_fala.ily:104:199:200">
<g transform="translate(22.2903, 22.5653)">
<text font-family="LilyPond Serif" font-variant="small-caps" font-size="2.4696" text-anchor="start" fill="currentColor">
<tspan>vo</tspan>
</text>
</g>
<g transform="translate(22.2903, 22.5653)">
<line stroke-linejoin="round" stroke-linecap="round" stroke-width="0.1219" stroke="currentColor" x1="0.0000" y1="-0.4876" x2="2.5038" y2="-0.4876"/>
</g>
</a>
<g transform="translate(23.5727, 16.6484)">
<rect x="-0.0305" y="-3.8287" width="0.0610" height="7.0677" ry="0.0305" fill="currentColor"/>
</g>
<a style="color:inherit;" xlink:href="textedit:///Users/davi/Composic%cc%a7a%cc%83o/2023/base-omcwb/omcwb/exemplo_tempo_fala.ily:104:224:225">
<g transform="translate(24.8941, 22.5653)">
<text font-family="LilyPond Serif" font-variant="small-caps" font-size="2.4696" text-anchor="start" fill="currentColor">
<tspan>a...</tspan>
</text>
</g>
<g transform="translate(24.8941, 22.5653)">
<line stroke-linejoin="round" stroke-linecap="round" stroke-width="0.1219" stroke="currentColor" x1="0.0000" y1="-0.4876" x2="3.4143" y2="-0.4876"/>
</g>
</a>
<a style="color:inherit;" xlink:href="textedit:///Users/davi/Composic%cc%a7a%cc%83o/2023/base-omcwb/omcwb/exemplo_tempo_fala.ily:44:24:25">
<g transform="translate(26.6013, 13.1484)">
<path transform="scale(0.0040, -0.0040)" d="M212 138c59 0 113 -31 113 -95c0 -71 -52 -120 -99 -148c-34 -21 -73 -33 -113 -33c-59 0 -113 31 -113 95c0 71 53 120 100 148c34 21 72 33 112 33z" fill="currentColor"/>
</g>
</a>
<a style="color:inherit;" xlink:href="textedit:///Users/davi/Composic%cc%a7a%cc%83o/2023/base-omcwb/omcwb/exemplo_tempo_fala.ily:47:24:25">
<g transform="translate(27.2517, 12.1957)">
<path transform="scale(0.0040, -0.0040)" d="M-50 0c0 28 22 50 50 50s50 -22 50 -50s-22 -50 -50 -50s-50 22 -50 50z" fill="currentColor"/>
</g>
</a>
<a style="color:inherit;" xlink:href="textedit:///Users/davi/Composic%cc%a7a%cc%83o/2023/base-omcwb/omcwb/exemplo_tempo_fala.ily:104:298:299">
<g transform="translate(35.7548, 22.5653)">
<text font-family="LilyPond Serif" font-variant="small-caps" font-size="2.4696" text-anchor="start" fill="currentColor">
<tspan>vra</tspan>
</text>
</g>
<g transform="translate(35.7548, 22.5653)">
<line stroke-linejoin="round" stroke-linecap="round" stroke-width="0.1219" stroke="currentColor" x1="0.0000" y1="-0.4876" x2="3.8241" y2="-0.4876"/>
</g>
</a>
<a style="color:inherit;" xlink:href="textedit:///Users/davi/Composic%cc%a7a%cc%83o/2023/base-omcwb/omcwb/exemplo_tempo_fala.ily:104:173:174">
<g transform="translate(18.3737, 22.5653)">
<rect x="0.0000" y="-0.5785" width="0.3920" height="0.1585" ry="0.0488" fill="currentColor"/>
</g>
</a>
<a style="color:inherit;" xlink:href="textedit:///Users/davi/Composic%cc%a7a%cc%83o/2023/base-omcwb/omcwb/exemplo_tempo_fala.ily:53:24:25">
<g transform="translate(32.0267, 14.1484)">
<path transform="scale(0.0040, -0.0040)" d="M310 63c0 23 -19 40 -40 40c-4 0 -8 -1 -12 -2c-30 -8 -75 -38 -111 -61s-81 -52 -101 -76c-7 -8 -10 -17 -10 -27c0 -23 19 -40 40 -40c4 0 8 1 12 2c30 8 75 38 111 61s81 52 101 76c7 8 10 17 10 27zM256 138c50 0 90 -22 90 -77c0 -18 -5 -37 -10 -55
c-11 -38 -30 -74 -63 -96c-53 -35 -111 -48 -183 -48c-50 0 -90 22 -90 77c0 18 5 37 10 55c11 38 30 74 63 96c53 36 111 48 183 48z" fill="currentColor"/>
</g>
</a>
<a style="color:inherit;" xlink:href="textedit:///Users/davi/Composic%cc%a7a%cc%83o/2023/base-omcwb/omcwb/exemplo_tempo_fala.ily:104:248:249">
<g transform="translate(30.6382, 22.5653)">
<text font-family="LilyPond Serif" font-variant="small-caps" font-size="2.4696" text-anchor="start" fill="currentColor">
<tspan>pa</tspan>
</text>
</g>
<g transform="translate(30.6382, 22.5653)">
<line stroke-linejoin="round" stroke-linecap="round" stroke-width="0.1219" stroke="currentColor" x1="0.0000" y1="-0.4876" x2="2.7770" y2="-0.4876"/>
</g>
</a>
<g transform="translate(32.0572, 16.6484)">
<rect x="-0.0305" y="-2.3287" width="0.0610" height="3.3287" ry="0.0305" fill="currentColor"/>
</g>
<a style="color:inherit;" xlink:href="textedit:///Users/davi/Composic%cc%a7a%cc%83o/2023/base-omcwb/omcwb/exemplo_tempo_fala.ily:104:273:274">
<g transform="translate(33.5152, 22.5653)">
<text font-family="LilyPond Serif" font-variant="small-caps" font-size="2.4696" text-anchor="start" fill="currentColor">
<tspan>la</tspan>
</text>
</g>
<g transform="translate(33.5152, 22.5653)">
<line stroke-linejoin="round" stroke-linecap="round" stroke-width="0.1219" stroke="currentColor" x1="0.0000" y1="-0.4876" x2="2.1396" y2="-0.4876"/>
</g>
</a>
<g transform="translate(8.5437, 13.1484)">
<path transform="scale(0.0040, -0.0040)" d="M108 -312c0 -12 -9 -20 -21 -20s-20 8 -20 20v112l-29 -17c-4 -2 -9 -4 -13 -4c-13 0 -25 11 -25 26v54c0 9 4 16 12 21l55 33v150l-29 -17c-4 -2 -9 -4 -13 -4c-13 0 -25 10 -25 25v54c0 9 4 17 12 22l55 32v137c0 12 8 20 20 20s21 -8 21 -20v-112l29 17c4 2 9 4 13 4
c13 0 25 -11 25 -26v-54c0 -9 -4 -16 -12 -21l-55 -33v-150l29 17c4 2 9 4 13 4c13 0 25 -10 25 -25v-54c0 -9 -4 -17 -12 -22l-55 -32v-137z" fill="currentColor"/>
</g>
<a style="color:inherit;" xlink:href="textedit:///Users/davi/Composic%cc%a7a%cc%83o/2023/base-omcwb/omcwb/exemplo_tempo_fala.ily:37:24:25">
<g transform="translate(13.1191, 14.1484)">
<path transform="scale(0.0040, -0.0040)" d="M212 138c59 0 113 -31 113 -95c0 -71 -52 -120 -99 -148c-34 -21 -73 -33 -113 -33c-59 0 -113 31 -113 95c0 71 53 120 100 148c34 21 72 33 112 33z" fill="currentColor"/>
</g>
</a>
<a style="color:inherit;" xlink:href="textedit:///Users/davi/Composic%cc%a7a%cc%83o/2023/base-omcwb/omcwb/exemplo_tempo_fala.ily:104:127:128">
<g transform="translate(11.6168, 22.5653)">
<text font-family="LilyPond Serif" font-variant="small-caps" font-size="2.4696" text-anchor="start" fill="currentColor">
<tspan>ta,</tspan>
</text>
</g>
<g transform="translate(11.6168, 22.5653)">
<line stroke-linejoin="round" stroke-linecap="round" stroke-width="0.1219" stroke="currentColor" x1="0.0000" y1="-0.4876" x2="3.0046" y2="-0.4876"/>
</g>
</a>
<g transform="translate(13.1496, 16.6484)">
<rect x="-0.0305" y="-2.3287" width="0.0610" height="5.5677" ry="0.0305" fill="currentColor"/>
</g>
<g transform="translate(18.8270, 16.1484)">
<path transform="scale(0.0040, -0.0040)" d="M0 116c0 10 6 19 16 23l40 15v154c0 12 9 21 21 21s21 -9 21 -21v-138l79 30v154c0 12 9 21 21 21s21 -9 21 -21v-138l22 8c3 1 6 2 9 2c13 0 25 -11 25 -25v-54c0 -10 -6 -20 -16 -24l-40 -15v-155l22 9c3 1 6 1 9 1c13 0 25 -11 25 -25v-54c0 -10 -6 -19 -16 -23
l-40 -15v-154c0 -12 -9 -21 -21 -21s-21 9 -21 21v138l-79 -30v-154c0 -12 -9 -21 -21 -21s-21 9 -21 21v138l-22 -8c-3 -1 -6 -2 -9 -2c-13 0 -25 11 -25 25v54c0 10 6 20 16 24l40 15v155l-22 -9c-3 -1 -6 -1 -9 -1c-13 0 -25 11 -25 25v54zM177 92l-79 -30v-154l79 30
v154z" fill="currentColor"/>
</g>
<a style="color:inherit;" xlink:href="textedit:///Users/davi/Composic%cc%a7a%cc%83o/2023/base-omcwb/omcwb/exemplo_tempo_fala.ily:33:24:25">
<g transform="translate(9.5937, 13.1484)">
<path transform="scale(0.0040, -0.0040)" d="M212 138c59 0 113 -31 113 -95c0 -71 -52 -120 -99 -148c-34 -21 -73 -33 -113 -33c-59 0 -113 31 -113 95c0 71 53 120 100 148c34 21 72 33 112 33z" fill="currentColor"/>
</g>
</a>
<a style="color:inherit;" xlink:href="textedit:///Users/davi/Composic%cc%a7a%cc%83o/2023/base-omcwb/omcwb/exemplo_tempo_fala.ily:36:24:25">
<g transform="translate(10.2441, 12.1957)">
<path transform="scale(0.0040, -0.0040)" d="M-50 0c0 28 22 50 50 50s50 -22 50 -50s-22 -50 -50 -50s-50 22 -50 50z" fill="currentColor"/>
</g>
</a>
<g color="rgb(100.0000%, 100.0000%, 100.0000%)">
<g transform="translate(4.7156, 17.6484)">
<path transform="scale(0.0040, -0.0040)" d="M379 264c3 0 7 1 10 1c157 0 258 -129 258 -263c0 -77 -33 -155 -108 -211c-22 -16 -46 -29 -72 -37c3 -33 4 -66 4 -99c0 -21 0 -41 -1 -62c-7 -121 -91 -229 -211 -229c-108 0 -196 88 -196 197c0 58 54 103 113 103c54 0 95 -47 95 -103c0 -52 -43 -95 -95 -95
c-9 0 -18 1 -27 4c25 -37 66 -61 113 -61c95 0 156 93 162 191c1 19 2 38 2 57c0 29 -1 58 -3 87c-29 -5 -58 -8 -88 -8c-189 0 -333 173 -333 376c0 177 129 308 244 443c-20 62 -40 124 -48 189c-7 52 -7 105 -7 158c0 114 54 221 147 288c8 6 18 5 25 -1
c72 -83 135 -243 135 -356c0 -142 -84 -255 -176 -364c21 -68 40 -136 57 -205zM463 -201c65 24 110 94 110 161c0 88 -64 175 -167 188c24 -114 44 -227 57 -349zM77 25c0 -133 128 -243 261 -243c27 0 55 1 81 5c-13 126 -35 244 -60 362c-79 -8 -124 -60 -124 -118
c0 -43 25 -88 80 -120c5 -5 7 -11 7 -17c0 -12 -10 -23 -23 -23c-3 0 -7 1 -10 2c-81 43 -118 115 -118 186c0 89 60 177 163 200c-14 57 -30 113 -47 169c-105 -122 -210 -243 -210 -403zM242 784c0 -71 21 -130 39 -188c78 97 142 199 142 324c0 51 -4 72 -20 118
c-99 -46 -161 -145 -161 -254z" fill="currentColor"/>
</g>
<g transform="translate(4.7063, 17.6950)">
<path transform="scale(0.0040, -0.0040)" d="M379 264c3 0 7 1 10 1c157 0 258 -129 258 -263c0 -77 -33 -155 -108 -211c-22 -16 -46 -29 -72 -37c3 -33 4 -66 4 -99c0 -21 0 -41 -1 -62c-7 -121 -91 -229 -211 -229c-108 0 -196 88 -196 197c0 58 54 103 113 103c54 0 95 -47 95 -103c0 -52 -43 -95 -95 -95
c-9 0 -18 1 -27 4c25 -37 66 -61 113 -61c95 0 156 93 162 191c1 19 2 38 2 57c0 29 -1 58 -3 87c-29 -5 -58 -8 -88 -8c-189 0 -333 173 -333 376c0 177 129 308 244 443c-20 62 -40 124 -48 189c-7 52 -7 105 -7 158c0 114 54 221 147 288c8 6 18 5 25 -1
c72 -83 135 -243 135 -356c0 -142 -84 -255 -176 -364c21 -68 40 -136 57 -205zM463 -201c65 24 110 94 110 161c0 88 -64 175 -167 188c24 -114 44 -227 57 -349zM77 25c0 -133 128 -243 261 -243c27 0 55 1 81 5c-13 126 -35 244 -60 362c-79 -8 -124 -60 -124 -118
c0 -43 25 -88 80 -120c5 -5 7 -11 7 -17c0 -12 -10 -23 -23 -23c-3 0 -7 1 -10 2c-81 43 -118 115 -118 186c0 89 60 177 163 200c-14 57 -30 113 -47 169c-105 -122 -210 -243 -210 -403zM242 784c0 -71 21 -130 39 -188c78 97 142 199 142 324c0 51 -4 72 -20 118
c-99 -46 -161 -145 -161 -254z" fill="currentColor"/>
</g>
<g transform="translate(4.6799, 17.7346)">
<path transform="scale(0.0040, -0.0040)" d="M379 264c3 0 7 1 10 1c157 0 258 -129 258 -263c0 -77 -33 -155 -108 -211c-22 -16 -46 -29 -72 -37c3 -33 4 -66 4 -99c0 -21 0 -41 -1 -62c-7 -121 -91 -229 -211 -229c-108 0 -196 88 -196 197c0 58 54 103 113 103c54 0 95 -47 95 -103c0 -52 -43 -95 -95 -95
c-9 0 -18 1 -27 4c25 -37 66 -61 113 -61c95 0 156 93 162 191c1 19 2 38 2 57c0 29 -1 58 -3 87c-29 -5 -58 -8 -88 -8c-189 0 -333 173 -333 376c0 177 129 308 244 443c-20 62 -40 124 -48 189c-7 52 -7 105 -7 158c0 114 54 221 147 288c8 6 18 5 25 -1
c72 -83 135 -243 135 -356c0 -142 -84 -255 -176 -364c21 -68 40 -136 57 -205zM463 -201c65 24 110 94 110 161c0 88 -64 175 -167 188c24 -114 44 -227 57 -349zM77 25c0 -133 128 -243 261 -243c27 0 55 1 81 5c-13 126 -35 244 -60 362c-79 -8 -124 -60 -124 -118
c0 -43 25 -88 80 -120c5 -5 7 -11 7 -17c0 -12 -10 -23 -23 -23c-3 0 -7 1 -10 2c-81 43 -118 115 -118 186c0 89 60 177 163 200c-14 57 -30 113 -47 169c-105 -122 -210 -243 -210 -403zM242 784c0 -71 21 -130 39 -188c78 97 142 199 142 324c0 51 -4 72 -20 118
c-99 -46 -161 -145 -161 -254z" fill="currentColor"/>
</g>
<g transform="translate(4.6404, 17.7610)">
<path transform="scale(0.0040, -0.0040)" d="M379 264c3 0 7 1 10 1c157 0 258 -129 258 -263c0 -77 -33 -155 -108 -211c-22 -16 -46 -29 -72 -37c3 -33 4 -66 4 -99c0 -21 0 -41 -1 -62c-7 -121 -91 -229 -211 -229c-108 0 -196 88 -196 197c0 58 54 103 113 103c54 0 95 -47 95 -103c0 -52 -43 -95 -95 -95
c-9 0 -18 1 -27 4c25 -37 66 -61 113 -61c95 0 156 93 162 191c1 19 2 38 2 57c0 29 -1 58 -3 87c-29 -5 -58 -8 -88 -8c-189 0 -333 173 -333 376c0 177 129 308 244 443c-20 62 -40 124 -48 189c-7 52 -7 105 -7 158c0 114 54 221 147 288c8 6 18 5 25 -1
c72 -83 135 -243 135 -356c0 -142 -84 -255 -176 -364c21 -68 40 -136 57 -205zM463 -201c65 24 110 94 110 161c0 88 -64 175 -167 188c24 -114 44 -227 57 -349zM77 25c0 -133 128 -243 261 -243c27 0 55 1 81 5c-13 126 -35 244 -60 362c-79 -8 -124 -60 -124 -118
c0 -43 25 -88 80 -120c5 -5 7 -11 7 -17c0 -12 -10 -23 -23 -23c-3 0 -7 1 -10 2c-81 43 -118 115 -118 186c0 89 60 177 163 200c-14 57 -30 113 -47 169c-105 -122 -210 -243 -210 -403zM242 784c0 -71 21 -130 39 -188c78 97 142 199 142 324c0 51 -4 72 -20 118
c-99 -46 -161 -145 -161 -254z" fill="currentColor"/>
</g>
<g transform="translate(4.5937, 17.7703)">
<path transform="scale(0.0040, -0.0040)" d="M379 264c3 0 7 1 10 1c157 0 258 -129 258 -263c0 -77 -33 -155 -108 -211c-22 -16 -46 -29 -72 -37c3 -33 4 -66 4 -99c0 -21 0 -41 -1 -62c-7 -121 -91 -229 -211 -229c-108 0 -196 88 -196 197c0 58 54 103 113 103c54 0 95 -47 95 -103c0 -52 -43 -95 -95 -95
c-9 0 -18 1 -27 4c25 -37 66 -61 113 -61c95 0 156 93 162 191c1 19 2 38 2 57c0 29 -1 58 -3 87c-29 -5 -58 -8 -88 -8c-189 0 -333 173 -333 376c0 177 129 308 244 443c-20 62 -40 124 -48 189c-7 52 -7 105 -7 158c0 114 54 221 147 288c8 6 18 5 25 -1
c72 -83 135 -243 135 -356c0 -142 -84 -255 -176 -364c21 -68 40 -136 57 -205zM463 -201c65 24 110 94 110 161c0 88 -64 175 -167 188c24 -114 44 -227 57 -349zM77 25c0 -133 128 -243 261 -243c27 0 55 1 81 5c-13 126 -35 244 -60 362c-79 -8 -124 -60 -124 -118
c0 -43 25 -88 80 -120c5 -5 7 -11 7 -17c0 -12 -10 -23 -23 -23c-3 0 -7 1 -10 2c-81 43 -118 115 -118 186c0 89 60 177 163 200c-14 57 -30 113 -47 169c-105 -122 -210 -243 -210 -403zM242 784c0 -71 21 -130 39 -188c78 97 142 199 142 324c0 51 -4 72 -20 118
c-99 -46 -161 -145 -161 -254z" fill="currentColor"/>
</g>
<g transform="translate(4.5470, 17.7610)">
<path transform="scale(0.0040, -0.0040)" d="M379 264c3 0 7 1 10 1c157 0 258 -129 258 -263c0 -77 -33 -155 -108 -211c-22 -16 -46 -29 -72 -37c3 -33 4 -66 4 -99c0 -21 0 -41 -1 -62c-7 -121 -91 -229 -211 -229c-108 0 -196 88 -196 197c0 58 54 103 113 103c54 0 95 -47 95 -103c0 -52 -43 -95 -95 -95
c-9 0 -18 1 -27 4c25 -37 66 -61 113 -61c95 0 156 93 162 191c1 19 2 38 2 57c0 29 -1 58 -3 87c-29 -5 -58 -8 -88 -8c-189 0 -333 173 -333 376c0 177 129 308 244 443c-20 62 -40 124 -48 189c-7 52 -7 105 -7 158c0 114 54 221 147 288c8 6 18 5 25 -1
c72 -83 135 -243 135 -356c0 -142 -84 -255 -176 -364c21 -68 40 -136 57 -205zM463 -201c65 24 110 94 110 161c0 88 -64 175 -167 188c24 -114 44 -227 57 -349zM77 25c0 -133 128 -243 261 -243c27 0 55 1 81 5c-13 126 -35 244 -60 362c-79 -8 -124 -60 -124 -118
c0 -43 25 -88 80 -120c5 -5 7 -11 7 -17c0 -12 -10 -23 -23 -23c-3 0 -7 1 -10 2c-81 43 -118 115 -118 186c0 89 60 177 163 200c-14 57 -30 113 -47 169c-105 -122 -210 -243 -210 -403zM242 784c0 -71 21 -130 39 -188c78 97 142 199 142 324c0 51 -4 72 -20 118
c-99 -46 -161 -145 -161 -254z" fill="currentColor"/>
</g>
<g transform="translate(4.5075, 17.7346)">
<path transform="scale(0.0040, -0.0040)" d="M379 264c3 0 7 1 10 1c157 0 258 -129 258 -263c0 -77 -33 -155 -108 -211c-22 -16 -46 -29 -72 -37c3 -33 4 -66 4 -99c0 -21 0 -41 -1 -62c-7 -121 -91 -229 -211 -229c-108 0 -196 88 -196 197c0 58 54 103 113 103c54 0 95 -47 95 -103c0 -52 -43 -95 -95 -95
c-9 0 -18 1 -27 4c25 -37 66 -61 113 -61c95 0 156 93 162 191c1 19 2 38 2 57c0 29 -1 58 -3 87c-29 -5 -58 -8 -88 -8c-189 0 -333 173 -333 376c0 177 129 308 244 443c-20 62 -40 124 -48 189c-7 52 -7 105 -7 158c0 114 54 221 147 288c8 6 18 5 25 -1
c72 -83 135 -243 135 -356c0 -142 -84 -255 -176 -364c21 -68 40 -136 57 -205zM463 -201c65 24 110 94 110 161c0 88 -64 175 -167 188c24 -114 44 -227 57 -349zM77 25c0 -133 128 -243 261 -243c27 0 55 1 81 5c-13 126 -35 244 -60 362c-79 -8 -124 -60 -124 -118
c0 -43 25 -88 80 -120c5 -5 7 -11 7 -17c0 -12 -10 -23 -23 -23c-3 0 -7 1 -10 2c-81 43 -118 115 -118 186c0 89 60 177 163 200c-14 57 -30 113 -47 169c-105 -122 -210 -243 -210 -403zM242 784c0 -71 21 -130 39 -188c78 97 142 199 142 324c0 51 -4 72 -20 118
c-99 -46 -161 -145 -161 -254z" fill="currentColor"/>
</g>
<g transform="translate(4.4811, 17.6950)">
<path transform="scale(0.0040, -0.0040)" d="M379 264c3 0 7 1 10 1c157 0 258 -129 258 -263c0 -77 -33 -155 -108 -211c-22 -16 -46 -29 -72 -37c3 -33 4 -66 4 -99c0 -21 0 -41 -1 -62c-7 -121 -91 -229 -211 -229c-108 0 -196 88 -196 197c0 58 54 103 113 103c54 0 95 -47 95 -103c0 -52 -43 -95 -95 -95
c-9 0 -18 1 -27 4c25 -37 66 -61 113 -61c95 0 156 93 162 191c1 19 2 38 2 57c0 29 -1 58 -3 87c-29 -5 -58 -8 -88 -8c-189 0 -333 173 -333 376c0 177 129 308 244 443c-20 62 -40 124 -48 189c-7 52 -7 105 -7 158c0 114 54 221 147 288c8 6 18 5 25 -1
c72 -83 135 -243 135 -356c0 -142 -84 -255 -176 -364c21 -68 40 -136 57 -205zM463 -201c65 24 110 94 110 161c0 88 -64 175 -167 188c24 -114 44 -227 57 -349zM77 25c0 -133 128 -243 261 -243c27 0 55 1 81 5c-13 126 -35 244 -60 362c-79 -8 -124 -60 -124 -118
c0 -43 25 -88 80 -120c5 -5 7 -11 7 -17c0 -12 -10 -23 -23 -23c-3 0 -7 1 -10 2c-81 43 -118 115 -118 186c0 89 60 177 163 200c-14 57 -30 113 -47 169c-105 -122 -210 -243 -210 -403zM242 784c0 -71 21 -130 39 -188c78 97 142 199 142 324c0 51 -4 72 -20 118
c-99 -46 -161 -145 -161 -254z" fill="currentColor"/>
</g>
<g transform="translate(4.4718, 17.6484)">
<path transform="scale(0.0040, -0.0040)" d="M379 264c3 0 7 1 10 1c157 0 258 -129 258 -263c0 -77 -33 -155 -108 -211c-22 -16 -46 -29 -72 -37c3 -33 4 -66 4 -99c0 -21 0 -41 -1 -62c-7 -121 -91 -229 -211 -229c-108 0 -196 88 -196 197c0 58 54 103 113 103c54 0 95 -47 95 -103c0 -52 -43 -95 -95 -95
c-9 0 -18 1 -27 4c25 -37 66 -61 113 -61c95 0 156 93 162 191c1 19 2 38 2 57c0 29 -1 58 -3 87c-29 -5 -58 -8 -88 -8c-189 0 -333 173 -333 376c0 177 129 308 244 443c-20 62 -40 124 -48 189c-7 52 -7 105 -7 158c0 114 54 221 147 288c8 6 18 5 25 -1
c72 -83 135 -243 135 -356c0 -142 -84 -255 -176 -364c21 -68 40 -136 57 -205zM463 -201c65 24 110 94 110 161c0 88 -64 175 -167 188c24 -114 44 -227 57 -349zM77 25c0 -133 128 -243 261 -243c27 0 55 1 81 5c-13 126 -35 244 -60 362c-79 -8 -124 -60 -124 -118
c0 -43 25 -88 80 -120c5 -5 7 -11 7 -17c0 -12 -10 -23 -23 -23c-3 0 -7 1 -10 2c-81 43 -118 115 -118 186c0 89 60 177 163 200c-14 57 -30 113 -47 169c-105 -122 -210 -243 -210 -403zM242 784c0 -71 21 -130 39 -188c78 97 142 199 142 324c0 51 -4 72 -20 118
c-99 -46 -161 -145 -161 -254z" fill="currentColor"/>
</g>
<g transform="translate(4.4811, 17.6017)">
<path transform="scale(0.0040, -0.0040)" d="M379 264c3 0 7 1 10 1c157 0 258 -129 258 -263c0 -77 -33 -155 -108 -211c-22 -16 -46 -29 -72 -37c3 -33 4 -66 4 -99c0 -21 0 -41 -1 -62c-7 -121 -91 -229 -211 -229c-108 0 -196 88 -196 197c0 58 54 103 113 103c54 0 95 -47 95 -103c0 -52 -43 -95 -95 -95
c-9 0 -18 1 -27 4c25 -37 66 -61 113 -61c95 0 156 93 162 191c1 19 2 38 2 57c0 29 -1 58 -3 87c-29 -5 -58 -8 -88 -8c-189 0 -333 173 -333 376c0 177 129 308 244 443c-20 62 -40 124 -48 189c-7 52 -7 105 -7 158c0 114 54 221 147 288c8 6 18 5 25 -1
c72 -83 135 -243 135 -356c0 -142 -84 -255 -176 -364c21 -68 40 -136 57 -205zM463 -201c65 24 110 94 110 161c0 88 -64 175 -167 188c24 -114 44 -227 57 -349zM77 25c0 -133 128 -243 261 -243c27 0 55 1 81 5c-13 126 -35 244 -60 362c-79 -8 -124 -60 -124 -118
c0 -43 25 -88 80 -120c5 -5 7 -11 7 -17c0 -12 -10 -23 -23 -23c-3 0 -7 1 -10 2c-81 43 -118 115 -118 186c0 89 60 177 163 200c-14 57 -30 113 -47 169c-105 -122 -210 -243 -210 -403zM242 784c0 -71 21 -130 39 -188c78 97 142 199 142 324c0 51 -4 72 -20 118
c-99 -46 -161 -145 -161 -254z" fill="currentColor"/>
</g>
<g transform="translate(4.5075, 17.5622)">
<path transform="scale(0.0040, -0.0040)" d="M379 264c3 0 7 1 10 1c157 0 258 -129 258 -263c0 -77 -33 -155 -108 -211c-22 -16 -46 -29 -72 -37c3 -33 4 -66 4 -99c0 -21 0 -41 -1 -62c-7 -121 -91 -229 -211 -229c-108 0 -196 88 -196 197c0 58 54 103 113 103c54 0 95 -47 95 -103c0 -52 -43 -95 -95 -95
c-9 0 -18 1 -27 4c25 -37 66 -61 113 -61c95 0 156 93 162 191c1 19 2 38 2 57c0 29 -1 58 -3 87c-29 -5 -58 -8 -88 -8c-189 0 -333 173 -333 376c0 177 129 308 244 443c-20 62 -40 124 -48 189c-7 52 -7 105 -7 158c0 114 54 221 147 288c8 6 18 5 25 -1
c72 -83 135 -243 135 -356c0 -142 -84 -255 -176 -364c21 -68 40 -136 57 -205zM463 -201c65 24 110 94 110 161c0 88 -64 175 -167 188c24 -114 44 -227 57 -349zM77 25c0 -133 128 -243 261 -243c27 0 55 1 81 5c-13 126 -35 244 -60 362c-79 -8 -124 -60 -124 -118
c0 -43 25 -88 80 -120c5 -5 7 -11 7 -17c0 -12 -10 -23 -23 -23c-3 0 -7 1 -10 2c-81 43 -118 115 -118 186c0 89 60 177 163 200c-14 57 -30 113 -47 169c-105 -122 -210 -243 -210 -403zM242 784c0 -71 21 -130 39 -188c78 97 142 199 142 324c0 51 -4 72 -20 118
c-99 -46 -161 -145 -161 -254z" fill="currentColor"/>
</g>
<g transform="translate(4.5470, 17.5357)">
<path transform="scale(0.0040, -0.0040)" d="M379 264c3 0 7 1 10 1c157 0 258 -129 258 -263c0 -77 -33 -155 -108 -211c-22 -16 -46 -29 -72 -37c3 -33 4 -66 4 -99c0 -21 0 -41 -1 -62c-7 -121 -91 -229 -211 -229c-108 0 -196 88 -196 197c0 58 54 103 113 103c54 0 95 -47 95 -103c0 -52 -43 -95 -95 -95
c-9 0 -18 1 -27 4c25 -37 66 -61 113 -61c95 0 156 93 162 191c1 19 2 38 2 57c0 29 -1 58 -3 87c-29 -5 -58 -8 -88 -8c-189 0 -333 173 -333 376c0 177 129 308 244 443c-20 62 -40 124 -48 189c-7 52 -7 105 -7 158c0 114 54 221 147 288c8 6 18 5 25 -1
c72 -83 135 -243 135 -356c0 -142 -84 -255 -176 -364c21 -68 40 -136 57 -205zM463 -201c65 24 110 94 110 161c0 88 -64 175 -167 188c24 -114 44 -227 57 -349zM77 25c0 -133 128 -243 261 -243c27 0 55 1 81 5c-13 126 -35 244 -60 362c-79 -8 -124 -60 -124 -118
c0 -43 25 -88 80 -120c5 -5 7 -11 7 -17c0 -12 -10 -23 -23 -23c-3 0 -7 1 -10 2c-81 43 -118 115 -118 186c0 89 60 177 163 200c-14 57 -30 113 -47 169c-105 -122 -210 -243 -210 -403zM242 784c0 -71 21 -130 39 -188c78 97 142 199 142 324c0 51 -4 72 -20 118
c-99 -46 -161 -145 -161 -254z" fill="currentColor"/>
</g>
<g transform="translate(4.5937, 17.5264)">
<path transform="scale(0.0040, -0.0040)" d="M379 264c3 0 7 1 10 1c157 0 258 -129 258 -263c0 -77 -33 -155 -108 -211c-22 -16 -46 -29 -72 -37c3 -33 4 -66 4 -99c0 -21 0 -41 -1 -62c-7 -121 -91 -229 -211 -229c-108 0 -196 88 -196 197c0 58 54 103 113 103c54 0 95 -47 95 -103c0 -52 -43 -95 -95 -95
c-9 0 -18 1 -27 4c25 -37 66 -61 113 -61c95 0 156 93 162 191c1 19 2 38 2 57c0 29 -1 58 -3 87c-29 -5 -58 -8 -88 -8c-189 0 -333 173 -333 376c0 177 129 308 244 443c-20 62 -40 124 -48 189c-7 52 -7 105 -7 158c0 114 54 221 147 288c8 6 18 5 25 -1
c72 -83 135 -243 135 -356c0 -142 -84 -255 -176 -364c21 -68 40 -136 57 -205zM463 -201c65 24 110 94 110 161c0 88 -64 175 -167 188c24 -114 44 -227 57 -349zM77 25c0 -133 128 -243 261 -243c27 0 55 1 81 5c-13 126 -35 244 -60 362c-79 -8 -124 -60 -124 -118
c0 -43 25 -88 80 -120c5 -5 7 -11 7 -17c0 -12 -10 -23 -23 -23c-3 0 -7 1 -10 2c-81 43 -118 115 -118 186c0 89 60 177 163 200c-14 57 -30 113 -47 169c-105 -122 -210 -243 -210 -403zM242 784c0 -71 21 -130 39 -188c78 97 142 199 142 324c0 51 -4 72 -20 118
c-99 -46 -161 -145 -161 -254z" fill="currentColor"/>
</g>
<g transform="translate(4.6404, 17.5357)">
<path transform="scale(0.0040, -0.0040)" d="M379 264c3 0 7 1 10 1c157 0 258 -129 258 -263c0 -77 -33 -155 -108 -211c-22 -16 -46 -29 -72 -37c3 -33 4 -66 4 -99c0 -21 0 -41 -1 -62c-7 -121 -91 -229 -211 -229c-108 0 -196 88 -196 197c0 58 54 103 113 103c54 0 95 -47 95 -103c0 -52 -43 -95 -95 -95
c-9 0 -18 1 -27 4c25 -37 66 -61 113 -61c95 0 156 93 162 191c1 19 2 38 2 57c0 29 -1 58 -3 87c-29 -5 -58 -8 -88 -8c-189 0 -333 173 -333 376c0 177 129 308 244 443c-20 62 -40 124 -48 189c-7 52 -7 105 -7 158c0 114 54 221 147 288c8 6 18 5 25 -1
c72 -83 135 -243 135 -356c0 -142 -84 -255 -176 -364c21 -68 40 -136 57 -205zM463 -201c65 24 110 94 110 161c0 88 -64 175 -167 188c24 -114 44 -227 57 -349zM77 25c0 -133 128 -243 261 -243c27 0 55 1 81 5c-13 126 -35 244 -60 362c-79 -8 -124 -60 -124 -118
c0 -43 25 -88 80 -120c5 -5 7 -11 7 -17c0 -12 -10 -23 -23 -23c-3 0 -7 1 -10 2c-81 43 -118 115 -118 186c0 89 60 177 163 200c-14 57 -30 113 -47 169c-105 -122 -210 -243 -210 -403zM242 784c0 -71 21 -130 39 -188c78 97 142 199 142 324c0 51 -4 72 -20 118
c-99 -46 -161 -145 -161 -254z" fill="currentColor"/>
</g>
<g transform="translate(4.6799, 17.5622)">
<path transform="scale(0.0040, -0.0040)" d="M379 264c3 0 7 1 10 1c157 0 258 -129 258 -263c0 -77 -33 -155 -108 -211c-22 -16 -46 -29 -72 -37c3 -33 4 -66 4 -99c0 -21 0 -41 -1 -62c-7 -121 -91 -229 -211 -229c-108 0 -196 88 -196 197c0 58 54 103 113 103c54 0 95 -47 95 -103c0 -52 -43 -95 -95 -95
c-9 0 -18 1 -27 4c25 -37 66 -61 113 -61c95 0 156 93 162 191c1 19 2 38 2 57c0 29 -1 58 -3 87c-29 -5 -58 -8 -88 -8c-189 0 -333 173 -333 376c0 177 129 308 244 443c-20 62 -40 124 -48 189c-7 52 -7 105 -7 158c0 114 54 221 147 288c8 6 18 5 25 -1
c72 -83 135 -243 135 -356c0 -142 -84 -255 -176 -364c21 -68 40 -136 57 -205zM463 -201c65 24 110 94 110 161c0 88 -64 175 -167 188c24 -114 44 -227 57 -349zM77 25c0 -133 128 -243 261 -243c27 0 55 1 81 5c-13 126 -35 244 -60 362c-79 -8 -124 -60 -124 -118
c0 -43 25 -88 80 -120c5 -5 7 -11 7 -17c0 -12 -10 -23 -23 -23c-3 0 -7 1 -10 2c-81 43 -118 115 -118 186c0 89 60 177 163 200c-14 57 -30 113 -47 169c-105 -122 -210 -243 -210 -403zM242 784c0 -71 21 -130 39 -188c78 97 142 199 142 324c0 51 -4 72 -20 118
c-99 -46 -161 -145 -161 -254z" fill="currentColor"/>
</g>
<g transform="translate(4.7063, 17.6017)">
<path transform="scale(0.0040, -0.0040)" d="M379 264c3 0 7 1 10 1c157 0 258 -129 258 -263c0 -77 -33 -155 -108 -211c-22 -16 -46 -29 -72 -37c3 -33 4 -66 4 -99c0 -21 0 -41 -1 -62c-7 -121 -91 -229 -211 -229c-108 0 -196 88 -196 197c0 58 54 103 113 103c54 0 95 -47 95 -103c0 -52 -43 -95 -95 -95
c-9 0 -18 1 -27 4c25 -37 66 -61 113 -61c95 0 156 93 162 191c1 19 2 38 2 57c0 29 -1 58 -3 87c-29 -5 -58 -8 -88 -8c-189 0 -333 173 -333 376c0 177 129 308 244 443c-20 62 -40 124 -48 189c-7 52 -7 105 -7 158c0 114 54 221 147 288c8 6 18 5 25 -1
c72 -83 135 -243 135 -356c0 -142 -84 -255 -176 -364c21 -68 40 -136 57 -205zM463 -201c65 24 110 94 110 161c0 88 -64 175 -167 188c24 -114 44 -227 57 -349zM77 25c0 -133 128 -243 261 -243c27 0 55 1 81 5c-13 126 -35 244 -60 362c-79 -8 -124 -60 -124 -118
c0 -43 25 -88 80 -120c5 -5 7 -11 7 -17c0 -12 -10 -23 -23 -23c-3 0 -7 1 -10 2c-81 43 -118 115 -118 186c0 89 60 177 163 200c-14 57 -30 113 -47 169c-105 -122 -210 -243 -210 -403zM242 784c0 -71 21 -130 39 -188c78 97 142 199 142 324c0 51 -4 72 -20 118
c-99 -46 -161 -145 -161 -254z" fill="currentColor"/>
</g>
</g>
<g transform="translate(4.5937, 17.6484)">
<path transform="scale(0.0040, -0.0040)" d="M379 264c3 0 7 1 10 1c157 0 258 -129 258 -263c0 -77 -33 -155 -108 -211c-22 -16 -46 -29 -72 -37c3 -33 4 -66 4 -99c0 -21 0 -41 -1 -62c-7 -121 -91 -229 -211 -229c-108 0 -196 88 -196 197c0 58 54 103 113 103c54 0 95 -47 95 -103c0 -52 -43 -95 -95 -95
c-9 0 -18 1 -27 4c25 -37 66 -61 113 -61c95 0 156 93 162 191c1 19 2 38 2 57c0 29 -1 58 -3 87c-29 -5 -58 -8 -88 -8c-189 0 -333 173 -333 376c0 177 129 308 244 443c-20 62 -40 124 -48 189c-7 52 -7 105 -7 158c0 114 54 221 147 288c8 6 18 5 25 -1
c72 -83 135 -243 135 -356c0 -142 -84 -255 -176 -364c21 -68 40 -136 57 -205zM463 -201c65 24 110 94 110 161c0 88 -64 175 -167 188c24 -114 44 -227 57 -349zM77 25c0 -133 128 -243 261 -243c27 0 55 1 81 5c-13 126 -35 244 -60 362c-79 -8 -124 -60 -124 -118
c0 -43 25 -88 80 -120c5 -5 7 -11 7 -17c0 -12 -10 -23 -23 -23c-3 0 -7 1 -10 2c-81 43 -118 115 -118 186c0 89 60 177 163 200c-14 57 -30 113 -47 169c-105 -122 -210 -243 -210 -403zM242 784c0 -71 21 -130 39 -188c78 97 142 199 142 324c0 51 -4 72 -20 118
c-99 -46 -161 -145 -161 -254z" fill="currentColor"/>
</g>
<a style="color:inherit;" xlink:href="textedit:///Users/davi/Composic%cc%a7a%cc%83o/2023/base-omcwb/omcwb/exemplo_tempo_fala.ily:104:101:102">
<g transform="translate(7.7500, 22.5653)">
<text font-family="LilyPond Serif" font-variant="small-caps" font-size="2.4696" text-anchor="start" fill="currentColor">
<tspan>Sal</tspan>
</text>
</g>
<g transform="translate(7.7500, 22.5653)">
<line stroke-linejoin="round" stroke-linecap="round" stroke-width="0.1219" stroke="currentColor" x1="0.0000" y1="-0.4876" x2="3.6875" y2="-0.4876"/>
</g>
</a>
<g transform="translate(9.6242, 16.6484)">
<rect x="-0.0305" y="-3.3287" width="0.0610" height="6.5677" ry="0.0305" fill="currentColor"/>
</g>
<g transform="translate(15.2375, 14.6484)">
<path transform="scale(0.0040, -0.0040)" d="M0 116c0 10 6 19 16 23l40 15v154c0 12 9 21 21 21s21 -9 21 -21v-138l79 30v154c0 12 9 21 21 21s21 -9 21 -21v-138l22 8c3 1 6 2 9 2c13 0 25 -11 25 -25v-54c0 -10 -6 -20 -16 -24l-40 -15v-155l22 9c3 1 6 1 9 1c13 0 25 -11 25 -25v-54c0 -10 -6 -19 -16 -23
l-40 -15v-154c0 -12 -9 -21 -21 -21s-21 9 -21 21v138l-79 -30v-154c0 -12 -9 -21 -21 -21s-21 9 -21 21v138l-22 -8c-3 -1 -6 -2 -9 -2c-13 0 -25 11 -25 25v54c0 10 6 20 16 24l40 15v155l-22 -9c-3 -1 -6 -1 -9 -1c-13 0 -25 11 -25 25v54zM177 92l-79 -30v-154l79 30
v154z" fill="currentColor"/>
</g>
<a style="color:inherit;" xlink:href="textedit:///Users/davi/Composic%cc%a7a%cc%83o/2023/base-omcwb/omcwb/exemplo_tempo_fala.ily:39:24:25">
<g transform="translate(20.3380, 16.1484)">
<path transform="scale(0.0040, -0.0040)" d="M212 138c59 0 113 -31 113 -95c0 -71 -52 -120 -99 -148c-34 -21 -73 -33 -113 -33c-59 0 -113 31 -113 95c0 71 53 120 100 148c34 21 72 33 112 33z" fill="currentColor"/>
</g>
</a>
<a style="color:inherit;" xlink:href="textedit:///Users/davi/Composic%cc%a7a%cc%83o/2023/base-omcwb/omcwb/exemplo_tempo_fala.ily:104:176:177">
<g transform="translate(18.8357, 22.5653)">
<text font-family="LilyPond Serif" font-variant="small-caps" font-size="2.4696" text-anchor="start" fill="currentColor">
<tspan>ta,</tspan>
</text>
</g>
<g transform="translate(18.8357, 22.5653)">
<line stroke-linejoin="round" stroke-linecap="round" stroke-width="0.1219" stroke="currentColor" x1="0.0000" y1="-0.4876" x2="3.0046" y2="-0.4876"/>
</g>
</a>
<g transform="translate(20.3684, 16.6484)">
<rect x="-0.0305" y="-0.3287" width="0.0610" height="3.5677" ry="0.0305" fill="currentColor"/>
</g>
<a style="color:inherit;" xlink:href="textedit:///Users/davi/Composic%cc%a7a%cc%83o/2023/base-omcwb/omcwb/exemplo_tempo_fala.ily:38:24:25">
<g transform="translate(16.6875, 14.6484)">
<path transform="scale(0.0040, -0.0040)" d="M212 138c59 0 113 -31 113 -95c0 -71 -52 -120 -99 -148c-34 -21 -73 -33 -113 -33c-59 0 -113 31 -113 95c0 71 53 120 100 148c34 21 72 33 112 33z" fill="currentColor"/>
</g>
</a>
<a style="color:inherit;" xlink:href="textedit:///Users/davi/Composic%cc%a7a%cc%83o/2023/base-omcwb/omcwb/exemplo_tempo_fala.ily:104:150:151">
<g transform="translate(15.0714, 22.5653)">
<text font-family="LilyPond Serif" font-variant="small-caps" font-size="2.4696" text-anchor="start" fill="currentColor">
<tspan>sal</tspan>
</text>
</g>
<g transform="translate(15.0714, 22.5653)">
<line stroke-linejoin="round" stroke-linecap="round" stroke-width="0.1219" stroke="currentColor" x1="0.0000" y1="-0.4876" x2="3.2322" y2="-0.4876"/>
</g>
</a>
<g transform="translate(16.7180, 16.6484)">
<rect x="-0.0305" y="-1.8287" width="0.0610" height="5.0677" ry="0.0305" fill="currentColor"/>
</g>
</svg>
